<mxfile host="app.diagrams.net" modified="2023-08-02T18:47:03.788Z" agent="Mozilla/5.0 (X11; Linux x86_64) AppleWebKit/537.36 (KHTML, like Gecko) Chrome/114.0.0.0 Safari/537.36" etag="5lwY8F081r-rTh2vaejp" version="21.6.6" type="google">
  <diagram id="b_o6hZrFCQuPrbf5h7Nx" name="Page-1">
    <mxGraphModel grid="1" page="1" gridSize="10" guides="1" tooltips="1" connect="1" arrows="1" fold="1" pageScale="1" pageWidth="850" pageHeight="1100" math="0" shadow="0">
      <root>
        <mxCell id="0" />
        <mxCell id="1" parent="0" />
        <mxCell id="q4Q2QkcforSy_G4io7BI-38" value="" style="group" vertex="1" connectable="0" parent="1">
          <mxGeometry x="1059" y="116" width="270" height="210" as="geometry" />
        </mxCell>
        <mxCell id="q4Q2QkcforSy_G4io7BI-39" value="" style="rounded=0;whiteSpace=wrap;html=1;strokeColor=#007FFF;dashed=1;fillColor=none;" vertex="1" parent="q4Q2QkcforSy_G4io7BI-38">
          <mxGeometry width="270" height="210" as="geometry" />
        </mxCell>
        <mxCell id="q4Q2QkcforSy_G4io7BI-44" value="DB Cluster" style="text;html=1;strokeColor=none;fillColor=none;align=right;verticalAlign=middle;whiteSpace=wrap;rounded=0;fontColor=#007FFF;" vertex="1" parent="q4Q2QkcforSy_G4io7BI-38">
          <mxGeometry x="204.1875" y="-6" width="61.875" height="35" as="geometry" />
        </mxCell>
        <mxCell id="q4Q2QkcforSy_G4io7BI-45" value="" style="shape=cylinder3;whiteSpace=wrap;html=1;boundedLbl=1;backgroundOutline=1;size=15;fontColor=#007FFF;strokeColor=#007FFF;fillColor=#ffffff;align=right;" vertex="1" parent="q4Q2QkcforSy_G4io7BI-38">
          <mxGeometry x="120" y="20" width="60" height="80" as="geometry" />
        </mxCell>
        <mxCell id="q4Q2QkcforSy_G4io7BI-40" value="" style="shape=cylinder3;whiteSpace=wrap;html=1;boundedLbl=1;backgroundOutline=1;size=15;fontColor=#007FFF;strokeColor=#007FFF;fillColor=#ffffff;align=right;" vertex="1" parent="q4Q2QkcforSy_G4io7BI-38">
          <mxGeometry x="120" y="120" width="60" height="80" as="geometry" />
        </mxCell>
        <mxCell id="q4Q2QkcforSy_G4io7BI-54" value="" style="group;fontColor=#007FFF;" vertex="1" connectable="0" parent="q4Q2QkcforSy_G4io7BI-38">
          <mxGeometry x="14" y="80" width="100" height="40" as="geometry" />
        </mxCell>
        <mxCell id="q4Q2QkcforSy_G4io7BI-55" value="" style="rounded=1;whiteSpace=wrap;html=1;strokeColor=#007FFF;fillColor=none;" vertex="1" parent="q4Q2QkcforSy_G4io7BI-54">
          <mxGeometry x="7.6923076923076925" y="10" width="92.3076923076923" height="30" as="geometry" />
        </mxCell>
        <mxCell id="q4Q2QkcforSy_G4io7BI-56" value="Cache" style="rounded=1;whiteSpace=wrap;html=1;strokeColor=#007FFF;fontColor=#007FFF;" vertex="1" parent="q4Q2QkcforSy_G4io7BI-54">
          <mxGeometry width="92.3076923076923" height="30" as="geometry" />
        </mxCell>
        <mxCell id="q4Q2QkcforSy_G4io7BI-9" style="edgeStyle=orthogonalEdgeStyle;rounded=0;orthogonalLoop=1;jettySize=auto;html=1;entryX=0.5;entryY=0;entryDx=0;entryDy=0;strokeColor=#007FFF;" edge="1" parent="1" source="q4Q2QkcforSy_G4io7BI-1" target="q4Q2QkcforSy_G4io7BI-5">
          <mxGeometry relative="1" as="geometry" />
        </mxCell>
        <mxCell id="q4Q2QkcforSy_G4io7BI-1" value="&lt;h1&gt;Tweet&lt;/h1&gt;&lt;p&gt;I have 20k followers. That&#39;s fucken awesome!&lt;/p&gt;" style="text;html=1;fillColor=none;spacing=0;spacingTop=-10;whiteSpace=wrap;overflow=hidden;rounded=0;strokeColor=#007FFF;spacingLeft=20;spacingBottom=20;spacingRight=20;" vertex="1" parent="1">
          <mxGeometry x="570" y="40" width="190" height="100" as="geometry" />
        </mxCell>
        <mxCell id="q4Q2QkcforSy_G4io7BI-7" value="" style="group;fontColor=#007FFF;" vertex="1" connectable="0" parent="1">
          <mxGeometry x="740" y="187" width="130" height="40" as="geometry" />
        </mxCell>
        <mxCell id="q4Q2QkcforSy_G4io7BI-6" value="" style="rounded=1;whiteSpace=wrap;html=1;strokeColor=#007FFF;fillColor=none;" vertex="1" parent="q4Q2QkcforSy_G4io7BI-7">
          <mxGeometry x="10" y="10" width="120" height="30" as="geometry" />
        </mxCell>
        <mxCell id="q4Q2QkcforSy_G4io7BI-5" value="TweetWrite Service" style="rounded=1;whiteSpace=wrap;html=1;strokeColor=#007FFF;fontColor=#007FFF;" vertex="1" parent="q4Q2QkcforSy_G4io7BI-7">
          <mxGeometry width="120" height="30" as="geometry" />
        </mxCell>
        <mxCell id="q4Q2QkcforSy_G4io7BI-10" value="" style="group;fontColor=#007FFF;" vertex="1" connectable="0" parent="1">
          <mxGeometry x="740" y="387" width="130" height="40" as="geometry" />
        </mxCell>
        <mxCell id="q4Q2QkcforSy_G4io7BI-11" value="" style="rounded=1;whiteSpace=wrap;html=1;strokeColor=#007FFF;fillColor=none;" vertex="1" parent="q4Q2QkcforSy_G4io7BI-10">
          <mxGeometry x="10" y="10" width="120" height="30" as="geometry" />
        </mxCell>
        <mxCell id="q4Q2QkcforSy_G4io7BI-12" value="Fan Out Service" style="rounded=1;whiteSpace=wrap;html=1;strokeColor=#007FFF;fontColor=#007FFF;" vertex="1" parent="q4Q2QkcforSy_G4io7BI-10">
          <mxGeometry width="120" height="30" as="geometry" />
        </mxCell>
        <mxCell id="q4Q2QkcforSy_G4io7BI-23" style="edgeStyle=orthogonalEdgeStyle;rounded=0;orthogonalLoop=1;jettySize=auto;html=1;entryX=0.5;entryY=0;entryDx=0;entryDy=0;fontColor=#007FFF;strokeColor=#007FFF;" edge="1" parent="1" source="q4Q2QkcforSy_G4io7BI-5" target="q4Q2QkcforSy_G4io7BI-12">
          <mxGeometry relative="1" as="geometry" />
        </mxCell>
        <mxCell id="q4Q2QkcforSy_G4io7BI-24" value="" style="group;fontColor=#007FFF;" vertex="1" connectable="0" parent="1">
          <mxGeometry x="440" y="270" width="130" height="40" as="geometry" />
        </mxCell>
        <mxCell id="q4Q2QkcforSy_G4io7BI-25" value="" style="rounded=1;whiteSpace=wrap;html=1;strokeColor=#007FFF;fillColor=none;" vertex="1" parent="q4Q2QkcforSy_G4io7BI-24">
          <mxGeometry x="10" y="10" width="120" height="30" as="geometry" />
        </mxCell>
        <mxCell id="q4Q2QkcforSy_G4io7BI-26" value="Timeline service" style="rounded=1;whiteSpace=wrap;html=1;strokeColor=#007FFF;fontColor=#007FFF;" vertex="1" parent="q4Q2QkcforSy_G4io7BI-24">
          <mxGeometry width="120" height="30" as="geometry" />
        </mxCell>
        <mxCell id="q4Q2QkcforSy_G4io7BI-28" value="" style="group" vertex="1" connectable="0" parent="1">
          <mxGeometry x="390" y="610" width="480" height="120" as="geometry" />
        </mxCell>
        <mxCell id="q4Q2QkcforSy_G4io7BI-14" value="" style="rounded=0;whiteSpace=wrap;html=1;strokeColor=#007FFF;dashed=1;fillColor=none;" vertex="1" parent="q4Q2QkcforSy_G4io7BI-28">
          <mxGeometry width="480" height="120" as="geometry" />
        </mxCell>
        <mxCell id="q4Q2QkcforSy_G4io7BI-16" value="" style="shape=cylinder3;whiteSpace=wrap;html=1;boundedLbl=1;backgroundOutline=1;size=15;fontColor=#007FFF;strokeColor=#007FFF;fillColor=#ffffff;align=right;" vertex="1" parent="q4Q2QkcforSy_G4io7BI-28">
          <mxGeometry x="28" y="30" width="60" height="80" as="geometry" />
        </mxCell>
        <mxCell id="q4Q2QkcforSy_G4io7BI-18" value="" style="shape=cylinder3;whiteSpace=wrap;html=1;boundedLbl=1;backgroundOutline=1;size=15;fontColor=#007FFF;strokeColor=#007FFF;fillColor=#ffffff;align=right;" vertex="1" parent="q4Q2QkcforSy_G4io7BI-28">
          <mxGeometry x="148" y="30" width="60" height="80" as="geometry" />
        </mxCell>
        <mxCell id="q4Q2QkcforSy_G4io7BI-19" value="" style="shape=cylinder3;whiteSpace=wrap;html=1;boundedLbl=1;backgroundOutline=1;size=15;fontColor=#007FFF;strokeColor=#007FFF;fillColor=#ffffff;align=right;" vertex="1" parent="q4Q2QkcforSy_G4io7BI-28">
          <mxGeometry x="268" y="30" width="60" height="80" as="geometry" />
        </mxCell>
        <mxCell id="q4Q2QkcforSy_G4io7BI-20" value="" style="shape=cylinder3;whiteSpace=wrap;html=1;boundedLbl=1;backgroundOutline=1;size=15;fontColor=#007FFF;strokeColor=#007FFF;fillColor=#ffffff;align=right;" vertex="1" parent="q4Q2QkcforSy_G4io7BI-28">
          <mxGeometry x="388" y="30" width="60" height="80" as="geometry" />
        </mxCell>
        <mxCell id="q4Q2QkcforSy_G4io7BI-21" value="Redis Cluster" style="text;html=1;strokeColor=none;fillColor=none;align=right;verticalAlign=middle;whiteSpace=wrap;rounded=0;fontColor=#007FFF;" vertex="1" parent="q4Q2QkcforSy_G4io7BI-28">
          <mxGeometry x="363" y="4" width="110" height="20" as="geometry" />
        </mxCell>
        <mxCell id="q4Q2QkcforSy_G4io7BI-29" style="edgeStyle=orthogonalEdgeStyle;rounded=0;orthogonalLoop=1;jettySize=auto;html=1;entryX=0.5;entryY=1;entryDx=0;entryDy=0;fontColor=#007FFF;strokeColor=#007FFF;" edge="1" parent="1" source="q4Q2QkcforSy_G4io7BI-14" target="q4Q2QkcforSy_G4io7BI-26">
          <mxGeometry relative="1" as="geometry">
            <Array as="points">
              <mxPoint x="500" y="420" />
              <mxPoint x="500" y="420" />
            </Array>
          </mxGeometry>
        </mxCell>
        <mxCell id="q4Q2QkcforSy_G4io7BI-81" value="posts records, popular users" style="edgeLabel;html=1;align=center;verticalAlign=middle;resizable=0;points=[];fontColor=#007FFF;" vertex="1" connectable="0" parent="q4Q2QkcforSy_G4io7BI-29">
          <mxGeometry x="0.3182" y="-3" relative="1" as="geometry">
            <mxPoint as="offset" />
          </mxGeometry>
        </mxCell>
        <mxCell id="q4Q2QkcforSy_G4io7BI-34" value="" style="group" vertex="1" connectable="0" parent="1">
          <mxGeometry x="410" y="64.5" width="137" height="71" as="geometry" />
        </mxCell>
        <mxCell id="q4Q2QkcforSy_G4io7BI-31" value="" style="rounded=1;whiteSpace=wrap;html=1;fontColor=#007FFF;strokeColor=#007FFF;fillColor=#ffffff;align=right;" vertex="1" parent="q4Q2QkcforSy_G4io7BI-34">
          <mxGeometry width="137" height="20" as="geometry" />
        </mxCell>
        <mxCell id="q4Q2QkcforSy_G4io7BI-32" value="" style="rounded=1;whiteSpace=wrap;html=1;fontColor=#007FFF;strokeColor=#007FFF;fillColor=#ffffff;align=right;" vertex="1" parent="q4Q2QkcforSy_G4io7BI-34">
          <mxGeometry y="25" width="137" height="20" as="geometry" />
        </mxCell>
        <mxCell id="q4Q2QkcforSy_G4io7BI-33" value="" style="rounded=1;whiteSpace=wrap;html=1;fontColor=#007FFF;strokeColor=#007FFF;fillColor=#ffffff;align=right;" vertex="1" parent="q4Q2QkcforSy_G4io7BI-34">
          <mxGeometry y="51" width="137" height="20" as="geometry" />
        </mxCell>
        <mxCell id="q4Q2QkcforSy_G4io7BI-35" style="edgeStyle=orthogonalEdgeStyle;rounded=0;orthogonalLoop=1;jettySize=auto;html=1;fontColor=#007FFF;strokeColor=#007FFF;" edge="1" parent="1" source="q4Q2QkcforSy_G4io7BI-26" target="q4Q2QkcforSy_G4io7BI-33">
          <mxGeometry relative="1" as="geometry" />
        </mxCell>
        <mxCell id="q4Q2QkcforSy_G4io7BI-36" value="Timeline" style="text;html=1;strokeColor=none;fillColor=none;align=center;verticalAlign=middle;whiteSpace=wrap;rounded=0;fontColor=#007FFF;" vertex="1" parent="1">
          <mxGeometry x="458.5" y="40" width="40" height="20" as="geometry" />
        </mxCell>
        <mxCell id="q4Q2QkcforSy_G4io7BI-47" value="" style="group;fontColor=#007FFF;" vertex="1" connectable="0" parent="1">
          <mxGeometry x="890" y="240" width="130" height="40" as="geometry" />
        </mxCell>
        <mxCell id="q4Q2QkcforSy_G4io7BI-48" value="" style="rounded=1;whiteSpace=wrap;html=1;strokeColor=#007FFF;fillColor=none;" vertex="1" parent="q4Q2QkcforSy_G4io7BI-47">
          <mxGeometry x="10" y="10" width="120" height="30" as="geometry" />
        </mxCell>
        <mxCell id="q4Q2QkcforSy_G4io7BI-49" value="DB Service" style="rounded=1;whiteSpace=wrap;html=1;strokeColor=#007FFF;fontColor=#007FFF;" vertex="1" parent="q4Q2QkcforSy_G4io7BI-47">
          <mxGeometry width="120" height="30" as="geometry" />
        </mxCell>
        <mxCell id="q4Q2QkcforSy_G4io7BI-51" value="posts" style="edgeStyle=orthogonalEdgeStyle;rounded=0;orthogonalLoop=1;jettySize=auto;html=1;fontColor=#007FFF;strokeColor=#007FFF;" edge="1" parent="1" source="q4Q2QkcforSy_G4io7BI-49" target="q4Q2QkcforSy_G4io7BI-26">
          <mxGeometry relative="1" as="geometry" />
        </mxCell>
        <mxCell id="q4Q2QkcforSy_G4io7BI-53" style="edgeStyle=orthogonalEdgeStyle;rounded=0;orthogonalLoop=1;jettySize=auto;html=1;entryX=1;entryY=0.5;entryDx=0;entryDy=0;fontColor=#007FFF;strokeColor=#007FFF;" edge="1" parent="1" source="q4Q2QkcforSy_G4io7BI-39" target="q4Q2QkcforSy_G4io7BI-49">
          <mxGeometry relative="1" as="geometry">
            <Array as="points">
              <mxPoint x="1090" y="255" />
              <mxPoint x="1090" y="255" />
            </Array>
          </mxGeometry>
        </mxCell>
        <mxCell id="q4Q2QkcforSy_G4io7BI-58" value="&lt;p style=&quot;line-height: 150%&quot;&gt;&lt;/p&gt;&lt;h1 style=&quot;font-size: 14px&quot;&gt;&lt;/h1&gt;&lt;h1&gt;&lt;font color=&quot;#000000&quot;&gt;Twitter Timeline&lt;/font&gt;&lt;/h1&gt;&lt;ul style=&quot;font-size: 14px ; line-height: 150%&quot;&gt;&lt;li&gt;&lt;font color=&quot;#000000&quot; style=&quot;font-weight: normal ; font-size: 14px&quot;&gt;150M active users.&lt;/font&gt;&lt;/li&gt;&lt;li&gt;&lt;font color=&quot;#000000&quot; style=&quot;font-weight: normal ; font-size: 14px&quot;&gt;300K QPS&lt;/font&gt;&lt;/li&gt;&lt;li&gt;&lt;font color=&quot;#000000&quot; style=&quot;font-weight: normal ; font-size: 14px&quot;&gt;Write to followers &amp;lt; 5s&lt;/font&gt;&lt;/li&gt;&lt;li&gt;&lt;font color=&quot;#000000&quot; style=&quot;font-weight: normal ; font-size: 14px&quot;&gt;up to 800 tweets could be displayed on the timeline.&lt;/font&gt;&lt;/li&gt;&lt;li&gt;&lt;font color=&quot;#000000&quot; style=&quot;font-weight: normal ; font-size: 14px&quot;&gt;low latency on read&amp;nbsp;&lt;/font&gt;&lt;/li&gt;&lt;li&gt;&lt;font color=&quot;#000000&quot; style=&quot;font-weight: normal ; font-size: 14px&quot;&gt;allowing relatively high on write.&lt;/font&gt;&lt;/li&gt;&lt;li&gt;&lt;font color=&quot;#000000&quot; style=&quot;font-weight: normal ; font-size: 14px&quot;&gt;5K new tweets per second on average. (12K at peak).&lt;/font&gt;&lt;/li&gt;&lt;li&gt;&lt;font color=&quot;#000000&quot; style=&quot;font-weight: normal ; font-size: 14px&quot;&gt;users can have up to tens of millions of followers.&lt;/font&gt;&lt;/li&gt;&lt;li&gt;&lt;font color=&quot;#000000&quot; style=&quot;font-weight: normal ; font-size: 14px&quot;&gt;&amp;lt; 10 000 users have over 1M followers&lt;/font&gt;&lt;/li&gt;&lt;/ul&gt;&lt;p&gt;&lt;/p&gt;" style="text;html=1;strokeColor=none;fillColor=none;spacing=5;spacingTop=-20;whiteSpace=wrap;overflow=hidden;rounded=0;fontColor=#007FFF;align=left;fontStyle=0" vertex="1" parent="1">
          <mxGeometry x="70" y="-288" width="450" height="250" as="geometry" />
        </mxCell>
        <mxCell id="q4Q2QkcforSy_G4io7BI-75" style="edgeStyle=orthogonalEdgeStyle;rounded=0;orthogonalLoop=1;jettySize=auto;html=1;entryX=0.5;entryY=1;entryDx=0;entryDy=0;fontColor=#007FFF;strokeColor=#007FFF;" edge="1" parent="1" source="q4Q2QkcforSy_G4io7BI-61" target="q4Q2QkcforSy_G4io7BI-73">
          <mxGeometry relative="1" as="geometry">
            <Array as="points">
              <mxPoint x="960" y="570" />
            </Array>
          </mxGeometry>
        </mxCell>
        <mxCell id="q4Q2QkcforSy_G4io7BI-61" value="" style="rounded=0;whiteSpace=wrap;html=1;strokeColor=#007FFF;dashed=1;fillColor=none;" vertex="1" parent="1">
          <mxGeometry x="1059" y="530" width="270" height="140" as="geometry" />
        </mxCell>
        <mxCell id="q4Q2QkcforSy_G4io7BI-69" value="" style="shape=cylinder3;whiteSpace=wrap;html=1;boundedLbl=1;backgroundOutline=1;size=15;fontColor=#007FFF;strokeColor=#007FFF;fillColor=#ffffff;align=right;" vertex="1" parent="1">
          <mxGeometry x="1099" y="570" width="60" height="80" as="geometry" />
        </mxCell>
        <mxCell id="q4Q2QkcforSy_G4io7BI-70" value="" style="shape=cylinder3;whiteSpace=wrap;html=1;boundedLbl=1;backgroundOutline=1;size=15;fontColor=#007FFF;strokeColor=#007FFF;fillColor=#ffffff;align=right;" vertex="1" parent="1">
          <mxGeometry x="1219" y="570" width="60" height="80" as="geometry" />
        </mxCell>
        <mxCell id="q4Q2QkcforSy_G4io7BI-71" value="Graph Cluster" style="text;html=1;strokeColor=none;fillColor=none;align=right;verticalAlign=middle;whiteSpace=wrap;rounded=0;fontColor=#007FFF;" vertex="1" parent="1">
          <mxGeometry x="1212" y="535" width="110" height="20" as="geometry" />
        </mxCell>
        <mxCell id="q4Q2QkcforSy_G4io7BI-72" value="" style="group;fontColor=#007FFF;" vertex="1" connectable="0" parent="1">
          <mxGeometry x="890" y="500" width="130" height="40" as="geometry" />
        </mxCell>
        <mxCell id="q4Q2QkcforSy_G4io7BI-73" value="" style="rounded=1;whiteSpace=wrap;html=1;strokeColor=#007FFF;fillColor=none;" vertex="1" parent="q4Q2QkcforSy_G4io7BI-72">
          <mxGeometry x="10" y="10" width="120" height="30" as="geometry" />
        </mxCell>
        <mxCell id="q4Q2QkcforSy_G4io7BI-74" value="Graph Service" style="rounded=1;whiteSpace=wrap;html=1;strokeColor=#007FFF;fontColor=#007FFF;" vertex="1" parent="q4Q2QkcforSy_G4io7BI-72">
          <mxGeometry width="120" height="30" as="geometry" />
        </mxCell>
        <mxCell id="q4Q2QkcforSy_G4io7BI-76" style="edgeStyle=orthogonalEdgeStyle;rounded=0;orthogonalLoop=1;jettySize=auto;html=1;fontColor=#007FFF;strokeColor=#007FFF;" edge="1" parent="1" source="q4Q2QkcforSy_G4io7BI-74">
          <mxGeometry relative="1" as="geometry">
            <mxPoint x="781" y="500" as="sourcePoint" />
            <mxPoint x="830" y="426" as="targetPoint" />
            <Array as="points">
              <mxPoint x="830" y="515" />
            </Array>
          </mxGeometry>
        </mxCell>
        <mxCell id="q4Q2QkcforSy_G4io7BI-80" value="Followers" style="edgeLabel;html=1;align=center;verticalAlign=middle;resizable=0;points=[];fontColor=#007FFF;" vertex="1" connectable="0" parent="q4Q2QkcforSy_G4io7BI-76">
          <mxGeometry x="-0.607" y="3" relative="1" as="geometry">
            <mxPoint x="-2" y="-13" as="offset" />
          </mxGeometry>
        </mxCell>
        <mxCell id="q4Q2QkcforSy_G4io7BI-78" value="MQ" style="rounded=1;whiteSpace=wrap;html=1;fontColor=#007FFF;strokeColor=#007FFF;fillColor=#ffffff;align=center;" vertex="1" parent="1">
          <mxGeometry x="781" y="286" width="40" height="20" as="geometry" />
        </mxCell>
        <mxCell id="q4Q2QkcforSy_G4io7BI-79" value="&lt;p style=&quot;line-height: 150%&quot;&gt;&lt;/p&gt;&lt;h1 style=&quot;font-size: 14px&quot;&gt;&lt;/h1&gt;&lt;h1&gt;&lt;font color=&quot;#000000&quot;&gt;Solution&lt;/font&gt;&lt;/h1&gt;&lt;ul style=&quot;line-height: 150%;&quot;&gt;&lt;li style=&quot;font-size: 14px;&quot;&gt;&lt;font color=&quot;#000000&quot; style=&quot;font-weight: normal ; font-size: 14px&quot;&gt;Fan Out batched by 2-4k Followers and HA by MQ (Kafka, etc)&lt;/font&gt;&lt;/li&gt;&lt;li style=&quot;font-size: 14px;&quot;&gt;&lt;font color=&quot;#000000&quot;&gt;Each-user timeline saved in Redis list and appended with new posts. Timeline limit based on space&lt;/font&gt;&lt;/li&gt;&lt;li style=&quot;font-size: 14px;&quot;&gt;&lt;font color=&quot;#000000&quot;&gt;DB cluster based on Column DB and use Cache for High Popularity posts (ScylaDb, Cassandra, etc)&lt;/font&gt;&lt;/li&gt;&lt;li style=&quot;font-size: 14px;&quot;&gt;&lt;font color=&quot;#000000&quot;&gt;Followers and other relation save in Graph DB (Apache Giraph, etc)&lt;/font&gt;&lt;/li&gt;&lt;li style=&quot;font-size: 14px;&quot;&gt;&lt;font color=&quot;#000000&quot;&gt;Lazy init of the user data in Redis from DB if it missed&lt;/font&gt;&lt;/li&gt;&lt;li style=&quot;&quot;&gt;&lt;font style=&quot;&quot; color=&quot;#000000&quot;&gt;&lt;span style=&quot;font-size: 14px;&quot;&gt;Popular users tweets not pushed to timelines instead people subscribe&amp;nbsp;to them with additional service&lt;/span&gt;&lt;/font&gt;&lt;/li&gt;&lt;li style=&quot;&quot;&gt;&lt;font color=&quot;#000000&quot;&gt;&lt;span style=&quot;font-size: 14px;&quot;&gt;Recommended posts based on users clusters&amp;nbsp;&lt;/span&gt;&lt;/font&gt;&lt;/li&gt;&lt;/ul&gt;&lt;p&gt;&lt;/p&gt;" style="text;html=1;strokeColor=none;fillColor=none;spacing=5;spacingTop=-20;whiteSpace=wrap;overflow=hidden;rounded=0;fontColor=#007FFF;align=left;fontStyle=0" vertex="1" parent="1">
          <mxGeometry x="590" y="-288" width="450" height="280" as="geometry" />
        </mxCell>
        <mxCell id="q4Q2QkcforSy_G4io7BI-89" style="edgeStyle=orthogonalEdgeStyle;rounded=0;orthogonalLoop=1;jettySize=auto;html=1;fontColor=#007FFF;strokeColor=#007FFF;" edge="1" parent="1" source="q4Q2QkcforSy_G4io7BI-26">
          <mxGeometry relative="1" as="geometry">
            <Array as="points">
              <mxPoint x="410" y="285" />
            </Array>
            <mxPoint x="410" y="610" as="targetPoint" />
          </mxGeometry>
        </mxCell>
        <mxCell id="q4Q2QkcforSy_G4io7BI-90" value="Update data if missed" style="edgeLabel;html=1;align=center;verticalAlign=middle;resizable=0;points=[];fontColor=#007FFF;" vertex="1" connectable="0" parent="q4Q2QkcforSy_G4io7BI-89">
          <mxGeometry x="-0.2159" y="2" relative="1" as="geometry">
            <mxPoint x="-2" y="153" as="offset" />
          </mxGeometry>
        </mxCell>
        <mxCell id="eYr8RXAyMOmIg6aBpmEX-1" value="" style="group;fontColor=#007FFF;" connectable="0" vertex="1" parent="1">
          <mxGeometry x="890" y="350" width="130" height="40" as="geometry" />
        </mxCell>
        <mxCell id="eYr8RXAyMOmIg6aBpmEX-2" value="" style="rounded=1;whiteSpace=wrap;html=1;strokeColor=#007FFF;fillColor=none;" vertex="1" parent="eYr8RXAyMOmIg6aBpmEX-1">
          <mxGeometry x="10" y="10" width="120" height="30" as="geometry" />
        </mxCell>
        <mxCell id="eYr8RXAyMOmIg6aBpmEX-3" value="Popular Users Service" style="rounded=1;whiteSpace=wrap;html=1;strokeColor=#007FFF;fontColor=#007FFF;" vertex="1" parent="eYr8RXAyMOmIg6aBpmEX-1">
          <mxGeometry width="120" height="30" as="geometry" />
        </mxCell>
        <mxCell id="eYr8RXAyMOmIg6aBpmEX-6" style="edgeStyle=orthogonalEdgeStyle;rounded=0;orthogonalLoop=1;jettySize=auto;html=1;entryX=0.5;entryY=0;entryDx=0;entryDy=0;strokeColor=#007FFF;" edge="1" parent="1" source="q4Q2QkcforSy_G4io7BI-5" target="q4Q2QkcforSy_G4io7BI-49">
          <mxGeometry relative="1" as="geometry" />
        </mxCell>
        <mxCell id="eYr8RXAyMOmIg6aBpmEX-8" style="edgeStyle=orthogonalEdgeStyle;rounded=0;orthogonalLoop=1;jettySize=auto;html=1;entryX=0.427;entryY=-0.05;entryDx=0;entryDy=0;entryPerimeter=0;strokeColor=#007FFF;" edge="1" parent="1" source="q4Q2QkcforSy_G4io7BI-12" target="q4Q2QkcforSy_G4io7BI-21">
          <mxGeometry relative="1" as="geometry" />
        </mxCell>
        <mxCell id="eYr8RXAyMOmIg6aBpmEX-9" value="&lt;font color=&quot;#007fff&quot;&gt;(post_id, author_id, params)&lt;/font&gt;" style="edgeLabel;html=1;align=center;verticalAlign=middle;resizable=0;points=[];" connectable="0" vertex="1" parent="eYr8RXAyMOmIg6aBpmEX-8">
          <mxGeometry x="-0.0816" y="2" relative="1" as="geometry">
            <mxPoint x="-3" y="53" as="offset" />
          </mxGeometry>
        </mxCell>
        <mxCell id="eYr8RXAyMOmIg6aBpmEX-10" style="edgeStyle=orthogonalEdgeStyle;rounded=0;orthogonalLoop=1;jettySize=auto;html=1;entryX=0.75;entryY=1;entryDx=0;entryDy=0;strokeColor=#007FFF;" edge="1" parent="1" source="eYr8RXAyMOmIg6aBpmEX-3" target="q4Q2QkcforSy_G4io7BI-26">
          <mxGeometry relative="1" as="geometry" />
        </mxCell>
        <mxCell id="eYr8RXAyMOmIg6aBpmEX-11" value="" style="group" connectable="0" vertex="1" parent="1">
          <mxGeometry x="1059" y="340" width="270" height="210" as="geometry" />
        </mxCell>
        <mxCell id="eYr8RXAyMOmIg6aBpmEX-12" value="" style="rounded=0;whiteSpace=wrap;html=1;strokeColor=#007FFF;dashed=1;fillColor=none;" vertex="1" parent="eYr8RXAyMOmIg6aBpmEX-11">
          <mxGeometry width="270" height="160" as="geometry" />
        </mxCell>
        <mxCell id="eYr8RXAyMOmIg6aBpmEX-13" value="Popular Users DB Cluster" style="text;html=1;strokeColor=none;fillColor=none;align=right;verticalAlign=middle;whiteSpace=wrap;rounded=0;fontColor=#007FFF;" vertex="1" parent="eYr8RXAyMOmIg6aBpmEX-11">
          <mxGeometry x="120" y="-6" width="146.06" height="35" as="geometry" />
        </mxCell>
        <mxCell id="eYr8RXAyMOmIg6aBpmEX-14" value="" style="shape=cylinder3;whiteSpace=wrap;html=1;boundedLbl=1;backgroundOutline=1;size=15;fontColor=#007FFF;strokeColor=#007FFF;fillColor=#ffffff;align=right;" vertex="1" parent="eYr8RXAyMOmIg6aBpmEX-11">
          <mxGeometry x="40" y="50" width="60" height="80" as="geometry" />
        </mxCell>
        <mxCell id="eYr8RXAyMOmIg6aBpmEX-15" value="" style="shape=cylinder3;whiteSpace=wrap;html=1;boundedLbl=1;backgroundOutline=1;size=15;fontColor=#007FFF;strokeColor=#007FFF;fillColor=#ffffff;align=right;" vertex="1" parent="eYr8RXAyMOmIg6aBpmEX-11">
          <mxGeometry x="163.03" y="50" width="60" height="80" as="geometry" />
        </mxCell>
        <mxCell id="eYr8RXAyMOmIg6aBpmEX-19" style="edgeStyle=orthogonalEdgeStyle;rounded=0;orthogonalLoop=1;jettySize=auto;html=1;entryX=1;entryY=0.5;entryDx=0;entryDy=0;strokeColor=#007FFF;startArrow=classic;startFill=1;" edge="1" parent="1" source="eYr8RXAyMOmIg6aBpmEX-12" target="eYr8RXAyMOmIg6aBpmEX-2">
          <mxGeometry relative="1" as="geometry">
            <Array as="points">
              <mxPoint x="1070" y="375" />
              <mxPoint x="1070" y="375" />
            </Array>
          </mxGeometry>
        </mxCell>
        <mxCell id="eYr8RXAyMOmIg6aBpmEX-20" style="edgeStyle=orthogonalEdgeStyle;rounded=0;orthogonalLoop=1;jettySize=auto;html=1;entryX=0;entryY=0.25;entryDx=0;entryDy=0;strokeColor=#007FFF;exitX=0.829;exitY=1.01;exitDx=0;exitDy=0;exitPerimeter=0;" edge="1" parent="1" source="q4Q2QkcforSy_G4io7BI-5" target="eYr8RXAyMOmIg6aBpmEX-3">
          <mxGeometry relative="1" as="geometry">
            <mxPoint x="840" y="220" as="sourcePoint" />
            <Array as="points">
              <mxPoint x="840" y="357" />
            </Array>
          </mxGeometry>
        </mxCell>
        <mxCell id="eYr8RXAyMOmIg6aBpmEX-22" value="" style="group;fontColor=#007FFF;" connectable="0" vertex="1" parent="1">
          <mxGeometry x="550" y="387" width="130" height="40" as="geometry" />
        </mxCell>
        <mxCell id="eYr8RXAyMOmIg6aBpmEX-23" value="" style="rounded=1;whiteSpace=wrap;html=1;strokeColor=#007FFF;fillColor=none;" vertex="1" parent="eYr8RXAyMOmIg6aBpmEX-22">
          <mxGeometry x="10" y="10" width="120" height="30" as="geometry" />
        </mxCell>
        <mxCell id="eYr8RXAyMOmIg6aBpmEX-24" value="Users Data Service" style="rounded=1;whiteSpace=wrap;html=1;strokeColor=#007FFF;fontColor=#007FFF;" vertex="1" parent="eYr8RXAyMOmIg6aBpmEX-22">
          <mxGeometry width="120" height="30" as="geometry" />
        </mxCell>
        <mxCell id="eYr8RXAyMOmIg6aBpmEX-26" style="edgeStyle=orthogonalEdgeStyle;rounded=0;orthogonalLoop=1;jettySize=auto;html=1;exitX=1;exitY=0.5;exitDx=0;exitDy=0;strokeColor=#007FFF;" edge="1" parent="1" source="eYr8RXAyMOmIg6aBpmEX-24" target="q4Q2QkcforSy_G4io7BI-12">
          <mxGeometry relative="1" as="geometry" />
        </mxCell>
        <mxCell id="eYr8RXAyMOmIg6aBpmEX-27" style="edgeStyle=orthogonalEdgeStyle;rounded=0;orthogonalLoop=1;jettySize=auto;html=1;entryX=0.624;entryY=0.988;entryDx=0;entryDy=0;entryPerimeter=0;strokeColor=#007FFF;" edge="1" parent="1" source="q4Q2QkcforSy_G4io7BI-14" target="eYr8RXAyMOmIg6aBpmEX-24">
          <mxGeometry relative="1" as="geometry">
            <Array as="points">
              <mxPoint x="625" y="560" />
              <mxPoint x="625" y="560" />
            </Array>
          </mxGeometry>
        </mxCell>
        <mxCell id="eYr8RXAyMOmIg6aBpmEX-28" value="" style="group;fontColor=#007FFF;" connectable="0" vertex="1" parent="1">
          <mxGeometry x="850" y="90" width="130" height="40" as="geometry" />
        </mxCell>
        <mxCell id="eYr8RXAyMOmIg6aBpmEX-29" value="" style="rounded=1;whiteSpace=wrap;html=1;strokeColor=#007FFF;fillColor=none;" vertex="1" parent="eYr8RXAyMOmIg6aBpmEX-28">
          <mxGeometry x="10" y="10" width="120" height="30" as="geometry" />
        </mxCell>
        <mxCell id="eYr8RXAyMOmIg6aBpmEX-30" value="Recomender Service" style="rounded=1;whiteSpace=wrap;html=1;strokeColor=#007FFF;fontColor=#007FFF;" vertex="1" parent="eYr8RXAyMOmIg6aBpmEX-28">
          <mxGeometry width="120" height="30" as="geometry" />
        </mxCell>
        <mxCell id="eYr8RXAyMOmIg6aBpmEX-31" style="edgeStyle=orthogonalEdgeStyle;rounded=0;orthogonalLoop=1;jettySize=auto;html=1;entryX=0.75;entryY=0;entryDx=0;entryDy=0;startArrow=classic;startFill=1;strokeColor=#007FFF;" edge="1" parent="1" source="eYr8RXAyMOmIg6aBpmEX-30" target="q4Q2QkcforSy_G4io7BI-5">
          <mxGeometry relative="1" as="geometry">
            <Array as="points">
              <mxPoint x="910" y="154" />
              <mxPoint x="830" y="154" />
            </Array>
          </mxGeometry>
        </mxCell>
      </root>
    </mxGraphModel>
  </diagram>
</mxfile>
